<?xml version="1.0" encoding="UTF-8" standalone="no"?>
<!-- Created with Inkscape (http://www.inkscape.org/) -->

<svg
   xmlns:dc="http://purl.org/dc/elements/1.1/"
   xmlns:cc="http://creativecommons.org/ns#"
   xmlns:rdf="http://www.w3.org/1999/02/22-rdf-syntax-ns#"
   xmlns:svg="http://www.w3.org/2000/svg"
   xmlns="http://www.w3.org/2000/svg"
   xmlns:sodipodi="http://sodipodi.sourceforge.net/DTD/sodipodi-0.dtd"
   xmlns:inkscape="http://www.inkscape.org/namespaces/inkscape"
   width="210mm"
   height="297mm"
   viewBox="0 0 210 297"
   version="1.1"
   id="svg8"
   inkscape:version="0.92.5 (2060ec1f9f, 2020-04-08)"
   sodipodi:docname="drawing.svg">
  <defs
     id="defs2" />
  <sodipodi:namedview
     id="base"
     pagecolor="#ffffff"
     bordercolor="#666666"
     borderopacity="1.0"
     inkscape:pageopacity="0.0"
     inkscape:pageshadow="2"
     inkscape:zoom="0.25"
     inkscape:cx="931.3577"
     inkscape:cy="166.27109"
     inkscape:document-units="px"
     inkscape:current-layer="layer1"
     showgrid="true"
     showborder="false"
     inkscape:object-nodes="true"
     inkscape:window-width="1920"
     inkscape:window-height="1044"
     inkscape:window-x="0"
     inkscape:window-y="36"
     inkscape:window-maximized="0">
    <inkscape:grid
       type="axonomgrid"
       id="grid4518"
       units="px"
       empspacing="5"
       spacingy="26.458333" />
  </sodipodi:namedview>
  <metadata
     id="metadata5">
    <rdf:RDF>
      <cc:Work
         rdf:about="">
        <dc:format>image/svg+xml</dc:format>
        <dc:type
           rdf:resource="http://purl.org/dc/dcmitype/StillImage" />
        <dc:title></dc:title>
      </cc:Work>
    </rdf:RDF>
  </metadata>
  <g
     inkscape:label="Layer 1"
     inkscape:groupmode="layer"
     id="layer1">
    <path
       style="fill:#800000;stroke:none;stroke-width:0.26458332px;stroke-linecap:butt;stroke-linejoin:miter;stroke-opacity:1"
       d="M -183.3087,85.333336 114.56794,-86.645826 412.44459,85.333336 114.56794,257.3125 Z"
       id="path4528"
       inkscape:connector-curvature="0" />
    <path
       style="fill:#535d6c;stroke:none;stroke-width:0.26458332px;stroke-linecap:butt;stroke-linejoin:miter;stroke-opacity:1"
       d="M -114.56794,98.562503 114.56794,-33.729162 343.70383,98.562503 114.56794,230.85417 -114.56794,98.562503"
       id="path4520"
       inkscape:connector-curvature="0" />
    <path
       style="fill:#550000;stroke:none;stroke-width:0.26458332px;stroke-linecap:butt;stroke-linejoin:miter;stroke-opacity:1"
       d="M -114.56794,98.562503 -137.48153,85.333336 114.56794,-60.187493 v 26.458331 z"
       id="path4524"
       inkscape:connector-curvature="0" />
    <path
       style="fill:#d40000;stroke:none;stroke-width:0.26458332px;stroke-linecap:butt;stroke-linejoin:miter;stroke-opacity:1"
       d="M 114.56794,-60.187493 366.6174,85.333336 343.70383,98.562503 114.56794,-33.729162 Z"
       id="path4526"
       inkscape:connector-curvature="0" />
    <path
       style="fill:#414955;fill-opacity:1;stroke:none;stroke-width:0.26458332px;stroke-linecap:butt;stroke-linejoin:miter;stroke-opacity:1"
       d="M 114.56794,-33.729162 137.48153,-20.499995 -91.654354,111.79167 -114.56794,98.562503 Z"
       id="path4530"
       inkscape:connector-curvature="0" />
    <path
       style="fill:#d40000;fill-opacity:1;stroke:none;stroke-width:0.26458332px;stroke-linecap:butt;stroke-linejoin:miter;stroke-opacity:1"
       d="M -183.3087,85.333336 V 111.79167 L 114.56794,283.77083 V 257.3125 Z"
       id="path4534"
       inkscape:connector-curvature="0" />
    <path
       style="fill:#550000;fill-opacity:1;stroke:none;stroke-width:0.26458332px;stroke-linecap:butt;stroke-linejoin:miter;stroke-opacity:1"
       d="M 114.56794,283.77083 412.44459,111.79167 V 85.333336 L 114.56794,257.3125 Z"
       id="path4536"
       inkscape:connector-curvature="0" />
    <path
       style="fill:#e6e6e6;stroke:none;stroke-width:0.99999994px;stroke-linecap:butt;stroke-linejoin:miter;stroke-opacity:1"
       d="m -606.21875,472.51953 v 999.99997 l 606.21875,350 86.601562,-50 259.808598,150 v 100 l 86.60156,50 v -1000 z"
       transform="scale(0.26458333)"
       id="path4538"
       inkscape:connector-curvature="0" />
    <path
       inkscape:connector-curvature="0"
       id="path4549"
       d="M 389.531,125.02083 V 389.60417 L 114.56794,548.35416 V 283.77083 Z"
       style="fill:#808080;stroke:none;stroke-width:0.26458332px;stroke-linecap:butt;stroke-linejoin:miter;stroke-opacity:1" />
    <path
       style="fill:#656565;fill-opacity:1;stroke:none;stroke-width:0.26458332px;stroke-linecap:butt;stroke-linejoin:miter;stroke-opacity:1"
       d="M 114.56794,310.22917 C 137.48153,297 389.53101,151.47917 389.53101,151.47917 v -26.45834 l -274.96307,158.75 v 26.45834"
       id="path4551"
       inkscape:connector-curvature="0" />
    <path
       style="fill:#5f8dd3;stroke:none;stroke-width:0.26458332px;stroke-linecap:butt;stroke-linejoin:miter;stroke-opacity:1"
       d="M 91.654354,508.66666 V 349.91667 l -68.740766,-39.6875 v 158.74999 l 68.740766,39.6875"
       id="path4553"
       inkscape:connector-curvature="0" />
    <path
       style="fill:#808080;fill-opacity:1;stroke:none;stroke-width:0.26458332px;stroke-linecap:butt;stroke-linejoin:miter;stroke-opacity:1"
       d="M 22.913588,310.22917 C 22.913588,310.22917 0,297 0,297 v 185.20833 c 0,0 22.913588,-13.22917 22.913588,-13.22917 V 310.22917"
       id="path4558"
       inkscape:connector-curvature="0" />
    <path
       style="fill:#800000;fill-opacity:1;stroke:none;stroke-width:0.26458332px;stroke-linecap:butt;stroke-linejoin:miter;stroke-opacity:1"
       d="M 0,482.20833 V 455.75 l 22.913588,-13.22917 v 26.45833 L 0,482.20833"
       id="path4560"
       inkscape:connector-curvature="0" />
    <path
       style="fill:#d40000;fill-opacity:1;stroke:none;stroke-width:0.26458332px;stroke-linecap:butt;stroke-linejoin:miter;stroke-opacity:1"
       d="m 0,455.75 -160.39512,-92.60417 v 26.45834 c 0,0 160.39512,92.60416 160.39512,92.60416 V 455.75"
       id="path4562"
       inkscape:connector-curvature="0" />
    <path
       style="fill:#d40000;fill-opacity:1;stroke:none;stroke-width:0.26458332px;stroke-linecap:butt;stroke-linejoin:miter;stroke-opacity:1"
       d="m 91.654354,508.66666 22.913586,13.22917 v 26.45833 L 91.654354,535.125 Z"
       id="path4564"
       inkscape:connector-curvature="0" />
    <path
       style="fill:#550000;fill-opacity:1;stroke:none;stroke-width:0.26458332px;stroke-linecap:butt;stroke-linejoin:miter;stroke-opacity:1"
       d="m 114.56794,521.89583 274.96307,-158.75 v 26.45834 L 114.56794,548.35416 v -26.45833"
       id="path4566"
       inkscape:connector-curvature="0" />
    <path
       style="fill:#5f8dd3;fill-opacity:1;stroke:none;stroke-width:0.26458332px;stroke-linecap:butt;stroke-linejoin:miter;stroke-opacity:1"
       d="M -22.913588,283.77083 -137.48153,217.625 v 105.83333 l 114.567942,66.14584 z"
       id="path4568"
       inkscape:connector-curvature="0" />
    <path
       style="fill:#808080;fill-opacity:1;stroke:none;stroke-width:0.26458332px;stroke-linecap:butt;stroke-linejoin:miter;stroke-opacity:1"
       d="m -137.48153,217.625 22.91359,13.22917 c 0,0 0,79.375 0,79.375 0,0 -22.91359,13.22916 -22.91359,13.22916 V 217.625"
       id="path4570"
       inkscape:connector-curvature="0" />
    <path
       style="fill:#ffffff;stroke:none;stroke-width:0.26458332px;stroke-linecap:butt;stroke-linejoin:miter;stroke-opacity:1"
       d="m -114.56794,310.22917 91.654352,52.91666 v 26.45834 L -137.48153,323.45833 Z"
       id="path4572"
       inkscape:connector-curvature="0" />
    <path
       inkscape:connector-curvature="0"
       id="path4574"
       d="M 137.48153,349.91667 252.04947,283.77084 V 389.60417 L 137.48153,455.75001 Z"
       style="fill:#5f8dd3;fill-opacity:1;stroke:none;stroke-width:0.26458332px;stroke-linecap:butt;stroke-linejoin:miter;stroke-opacity:1" />
    <path
       inkscape:connector-curvature="0"
       id="path4576"
       d="m 252.04947,283.77084 -22.91359,13.22917 c 0,0 0,79.375 0,79.375 0,0 22.91359,13.22916 22.91359,13.22916 V 283.77084"
       style="fill:#656565;fill-opacity:1;stroke:none;stroke-width:0.26458332px;stroke-linecap:butt;stroke-linejoin:miter;stroke-opacity:1" />
    <path
       inkscape:connector-curvature="0"
       id="path4578"
       d="m 229.13588,376.37501 -91.65435,52.91666 v 26.45834 l 114.56794,-66.14584 z"
       style="fill:#ffffff;stroke:none;stroke-width:0.26458332px;stroke-linecap:butt;stroke-linejoin:miter;stroke-opacity:1" />
    <path
       style="fill:#5f8dd3;fill-opacity:1;stroke:none;stroke-width:0.26458332px;stroke-linecap:butt;stroke-linejoin:miter;stroke-opacity:1"
       d="M 252.04948,283.77083 366.61742,217.625 v 105.83333 l -114.56794,66.14584 z"
       id="path4585"
       inkscape:connector-curvature="0" />
    <path
       style="fill:#656565;fill-opacity:1;stroke:none;stroke-width:0.26458332px;stroke-linecap:butt;stroke-linejoin:miter;stroke-opacity:1"
       d="m 366.61742,217.625 -22.91359,13.22917 c 0,0 0,79.375 0,79.375 0,0 22.91359,13.22916 22.91359,13.22916 V 217.625"
       id="path4587"
       inkscape:connector-curvature="0" />
    <path
       style="fill:#ffffff;stroke:none;stroke-width:0.26458332px;stroke-linecap:butt;stroke-linejoin:miter;stroke-opacity:1"
       d="m 343.70383,310.22917 -91.65435,52.91666 v 26.45834 l 114.56794,-66.14584 z"
       id="path4589"
       inkscape:connector-curvature="0" />
  </g>
</svg>
